<svg xmlns="http://www.w3.org/2000/svg" width="26" height="22" fill="none"><path fill="#fff" fill-opacity=".55" d="M15.5 12.25h-1.25V11a1.25 1.25 0 0 0-2.5 0v1.25H10.5a1.25 1.25 0 0 0 0 2.5h1.25V16a1.25 1.25 0 0 0 2.5 0v-1.25h1.25a1.25 1.25 0 0 0 0-2.5Z"/><path fill="#fff" fill-opacity=".55" d="M22.375 4.812h-8.75L10.338.837a1.25 1.25 0 0 0-.963-.462h-5.75A3.088 3.088 0 0 0 .5 3.412v15.175a3.087 3.087 0 0 0 3.125 3.038h18.75a3.088 3.088 0 0 0 3.125-3.038V7.85a3.088 3.088 0 0 0-3.125-3.038ZM23 18.562a.574.574 0 0 1-.625.538H3.625A.575.575 0 0 1 3 18.562V3.412a.575.575 0 0 1 .625-.537h5.162l3.25 3.975a1.25 1.25 0 0 0 .963.462h9.375A.575.575 0 0 1 23 7.85v10.713Z"/></svg>